<svg width="25" height="23" viewBox="0 0 25 23" fill="none" xmlns="http://www.w3.org/2000/svg">
<path d="M17.8313 0.283447C16.7052 0.300962 15.6037 0.615301 14.638 1.19472C13.6723 1.77414 12.8766 2.59812 12.3313 3.58345C11.7859 2.59812 10.9902 1.77414 10.0245 1.19472C9.0588 0.615301 7.95731 0.300962 6.83126 0.283447C5.0362 0.361438 3.34496 1.1467 2.12704 2.46768C0.909117 3.78866 0.263507 5.53797 0.331257 7.33345C0.331257 14.1084 11.2873 21.9334 11.7533 22.2654L12.3313 22.6744L12.9093 22.2654C13.3753 21.9354 24.3313 14.1084 24.3313 7.33345C24.399 5.53797 23.7534 3.78866 22.5355 2.46768C21.3176 1.1467 19.6263 0.361438 17.8313 0.283447ZM12.3313 20.2124C9.07826 17.7824 2.33126 11.8124 2.33126 7.33345C2.2629 6.06816 2.69762 4.82718 3.54062 3.88115C4.38362 2.93512 5.56649 2.3608 6.83126 2.28345C8.09602 2.3608 9.2789 2.93512 10.1219 3.88115C10.9649 4.82718 11.3996 6.06816 11.3313 7.33345H13.3313C13.2629 6.06816 13.6976 4.82718 14.5406 3.88115C15.3836 2.93512 16.5665 2.3608 17.8313 2.28345C19.096 2.3608 20.2789 2.93512 21.1219 3.88115C21.9649 4.82718 22.3996 6.06816 22.3313 7.33345C22.3313 11.8144 15.5843 17.7824 12.3313 20.2124Z" fill="#253D4E"/>
</svg>
