<svg width="18" height="25" viewBox="0 0 18 25" fill="none" xmlns="http://www.w3.org/2000/svg">
<path d="M18 24.3667H16V19.3237C15.9992 18.5397 15.6874 17.788 15.133 17.2337C14.5787 16.6793 13.827 16.3675 13.043 16.3667H4.957C4.173 16.3675 3.42134 16.6793 2.86696 17.2337C2.31259 17.788 2.00079 18.5397 2 19.3237V24.3667H0V19.3237C0.00158783 18.0095 0.524351 16.7496 1.45363 15.8203C2.3829 14.8911 3.64281 14.3683 4.957 14.3667H13.043C14.3572 14.3683 15.6171 14.8911 16.5464 15.8203C17.4756 16.7496 17.9984 18.0095 18 19.3237V24.3667Z" fill="#253D4E"/>
<path d="M9 12.3667C7.81331 12.3667 6.65328 12.0148 5.66658 11.3555C4.67989 10.6962 3.91085 9.75916 3.45673 8.6628C3.0026 7.56645 2.88378 6.36005 3.11529 5.19616C3.3468 4.03227 3.91825 2.96318 4.75736 2.12406C5.59648 1.28495 6.66558 0.713502 7.82946 0.48199C8.99335 0.250479 10.1997 0.369299 11.2961 0.823425C12.3925 1.27755 13.3295 2.04659 13.9888 3.03328C14.6481 4.01998 15 5.18001 15 6.3667C14.9984 7.95751 14.3658 9.48271 13.2409 10.6076C12.116 11.7325 10.5908 12.3651 9 12.3667ZM9 2.3667C8.20888 2.3667 7.43552 2.6013 6.77772 3.04082C6.11993 3.48035 5.60723 4.10506 5.30448 4.83597C5.00173 5.56687 4.92252 6.37114 5.07686 7.14706C5.2312 7.92299 5.61217 8.63572 6.17158 9.19513C6.73099 9.75454 7.44372 10.1355 8.21964 10.2898C8.99557 10.4442 9.79983 10.365 10.5307 10.0622C11.2616 9.75947 11.8864 9.24678 12.3259 8.58898C12.7654 7.93119 13 7.15783 13 6.3667C13 5.30584 12.5786 4.28842 11.8284 3.53827C11.0783 2.78813 10.0609 2.3667 9 2.3667Z" fill="#253D4E"/>
</svg>
