<svg width="25" height="25" viewBox="0 0 25 25" fill="none" xmlns="http://www.w3.org/2000/svg">
<path d="M24.0493 3.3667H4.29132L4.24932 3.0157C4.16336 2.28612 3.8127 1.61343 3.26381 1.12518C2.71491 0.636923 2.00594 0.367041 1.27132 0.366699L0.0493164 0.366699V2.3667H1.27132C1.51625 2.36673 1.75265 2.45666 1.93569 2.61941C2.11872 2.78217 2.23566 3.00645 2.26432 3.2497L3.84932 16.7177C3.93527 17.4473 4.28593 18.12 4.83483 18.6082C5.38372 19.0965 6.09269 19.3664 6.82732 19.3667H20.0493V17.3667H6.82732C6.58223 17.3666 6.3457 17.2766 6.16264 17.1136C5.97958 16.9506 5.86275 16.7261 5.83432 16.4827L5.70332 15.3667H21.8853L24.0493 3.3667ZM20.2133 13.3667H5.46832L4.52732 5.3667H21.6563L20.2133 13.3667Z" fill="#253D4E"/>
<path d="M7.04932 24.3667C8.15389 24.3667 9.04932 23.4713 9.04932 22.3667C9.04932 21.2621 8.15389 20.3667 7.04932 20.3667C5.94475 20.3667 5.04932 21.2621 5.04932 22.3667C5.04932 23.4713 5.94475 24.3667 7.04932 24.3667Z" fill="#253D4E"/>
<path d="M17.0493 24.3667C18.1539 24.3667 19.0493 23.4713 19.0493 22.3667C19.0493 21.2621 18.1539 20.3667 17.0493 20.3667C15.9447 20.3667 15.0493 21.2621 15.0493 22.3667C15.0493 23.4713 15.9447 24.3667 17.0493 24.3667Z" fill="#253D4E"/>
</svg>
